<svg xmlns="http://www.w3.org/2000/svg" viewBox="0 0 348.42 62.97"><defs><style>.cls-1{fill:#fff;}.cls-2{fill:#8f9aae;}.cls-3{fill:#fde74d;}</style></defs><title>Asset 4</title><g id="Layer_2" data-name="Layer 2"><g id="Layer_1-2" data-name="Layer 1"><polygon class="cls-1" points="7.75 52.52 1.67 52.52 0 60.53 6.09 60.53 7.75 52.52"/><polygon class="cls-1" points="13.93 52.52 12.25 60.53 23.73 60.53 25.39 52.52 13.93 52.52"/><polygon class="cls-1" points="52.58 52.52 50.9 60.53 78.58 60.52 80.24 52.52 52.58 52.52"/><polygon class="cls-1" points="86.42 52.52 84.74 60.52 139.06 60.52 140.72 52.51 86.42 52.52"/><path class="cls-1" d="M145.22,60.52H332.09l-8.91-8H146.9Z"/><path class="cls-2" d="M57.91,14.26l.15-.62a6.8,6.8,0,0,1,2.46-4A6.66,6.66,0,0,1,64.83,8h31a4.38,4.38,0,0,1,3.62,1.65,4.61,4.61,0,0,1,.84,4l-.15.62L94.68,40l-.15.61a6.85,6.85,0,0,1-2.46,4,6.64,6.64,0,0,1-4.31,1.65h-31a4.29,4.29,0,0,1-3.54-1.65,4.64,4.64,0,0,1-.84-4l.15-.61ZM82,40l5.46-25.7H70.6L65.14,40Z"/><path class="cls-2" d="M143,40.57a6.8,6.8,0,0,1-2.46,4,6.64,6.64,0,0,1-4.31,1.65H99.68l.08-.62a6,6,0,0,1,.93-2.19,7.82,7.82,0,0,1,1.61-1.77,8.6,8.6,0,0,1,2-1.19,5.57,5.57,0,0,1,2.23-.46h23.93l2.08-9.7H108.46A4.08,4.08,0,0,1,105,28.61a4.86,4.86,0,0,1-.84-3.89l.15-.77,2.08-9.69.15-.62a6.76,6.76,0,0,1,2.47-4A6.64,6.64,0,0,1,113.3,8h36.63l-.08.61a7.14,7.14,0,0,1-2.54,4A6.6,6.6,0,0,1,143,14.26H119.08l-1.7,8.08L117,24h23.93a4.32,4.32,0,0,1,3.61,1.66,4.54,4.54,0,0,1,.77,4l-.07.61L143.16,40Z"/><path class="cls-2" d="M160.93,39.88h14.78l-.15.77a6.66,6.66,0,0,1-2.43,3.92,6.57,6.57,0,0,1-4.27,1.62H152.39a4.1,4.1,0,0,1-3.46-1.62,4.65,4.65,0,0,1-.77-3.92l.15-.77.39-1.62L156.7,0h12.7l-1.69,8h13.23l-1.31,6.23H166.4l-5.08,24Z"/><path class="cls-2" d="M228.72,24.57a7.2,7.2,0,0,1-2.54,4,6.64,6.64,0,0,1-4.3,1.65H198L195.87,40h29.54l-.15.61a6.85,6.85,0,0,1-2.46,4,6.66,6.66,0,0,1-4.31,1.65h-31a4.27,4.27,0,0,1-3.54-1.65,4.68,4.68,0,0,1-.85-4l.16-.61,5.38-25.7.16-.62a6.8,6.8,0,0,1,2.46-4A6.64,6.64,0,0,1,195.56,8h31a4.38,4.38,0,0,1,3.62,1.65,4.61,4.61,0,0,1,.84,4l-.15.62L228.8,24ZM201.33,14.26,199.25,24h16.86l2.07-9.69Z"/><path class="cls-2" d="M39.29,14.26H52l.16-.62a4.65,4.65,0,0,0-.85-4A4.36,4.36,0,0,0,47.67,8h-31a6.64,6.64,0,0,0-4.3,1.65,6.76,6.76,0,0,0-2.47,4l-.15.62L9,17.8,3,46.19H15.66l6-28.39.78-3.54H39.29Z"/><path class="cls-2" d="M266.81,14.26H279.5l.16-.62a4.65,4.65,0,0,0-.85-4A4.36,4.36,0,0,0,275.2,8h-31a6.64,6.64,0,0,0-4.31,1.65,6.7,6.7,0,0,0-2.46,4l-.16.62-.77,3.54-5.92,28.39h12.62l6-28.39.77-3.54h16.85Z"/><path class="cls-3" d="M347.49,1.68A4.24,4.24,0,0,0,343.91,0H312.82a6.62,6.62,0,0,0-4.31,1.66,7.22,7.22,0,0,0-2.54,4l-.07.61L298.82,40l-.16.61a4.5,4.5,0,0,0,.77,4A4.3,4.3,0,0,0,303,46.19h15.36a12,12,0,0,1-.52-1.67,12.77,12.77,0,0,1-.17-4.56h-6.2l7.15-33.63h16.85l-1.53,6.93L330.6,29a12.69,12.69,0,0,1,11.17,7.28l4.83-23,1.54-6.93.15-.77A4.57,4.57,0,0,0,347.49,1.68Z"/><path class="cls-3" d="M325.65,32.39l1.81-.69,1-.19a10.36,10.36,0,0,1,11.36,6.23,10.71,10.71,0,0,1,.72,5.28q-1,9.79-2.06,19.6c0,.1,0,.2-.05.35l-.32-.28c-4.87-4.38-9.74-8.78-14.63-13.15A10.51,10.51,0,0,1,320.16,44a10.34,10.34,0,0,1,4.37-10.9Zm-1.2,11.46A6.2,6.2,0,1,0,327.9,36,6.16,6.16,0,0,0,324.45,43.85Z"/><polygon class="cls-3" points="298.56 8.01 300.24 0 287.54 0.03 285.87 8.03 298.56 8.01"/><polygon class="cls-3" points="284.57 14.27 277.93 46.21 290.55 46.19 297.25 14.24 284.57 14.27"/><polygon class="cls-1" points="31.57 52.52 29.89 60.53 44.73 60.53 46.4 52.52 31.57 52.52"/></g></g></svg>