<svg xmlns="http://www.w3.org/2000/svg" viewBox="0 0 144.7 26.15"><defs><style>.cls-1{fill:#fde74d;}.cls-2{fill:#8f9aae;}</style></defs><title>FinalFontFind</title><g id="Layer_2" data-name="Layer 2"><g id="Layer_1-2" data-name="Layer 1"><polygon class="cls-1" points="3.22 21.81 0.69 21.81 0 25.14 2.53 25.14 3.22 21.81"/><polygon class="cls-1" points="5.79 21.81 5.09 25.14 9.85 25.14 10.54 21.81 5.79 21.81"/><polygon class="cls-1" points="21.84 21.81 21.14 25.14 32.63 25.14 33.33 21.81 21.84 21.81"/><polygon class="cls-1" points="35.89 21.81 35.19 25.14 57.75 25.13 58.44 21.81 35.89 21.81"/><path class="cls-1" d="M60.31,25.13h77.61l-3.7-3.33H61Z"/><path class="cls-2" d="M24.05,5.92l.06-.25a2.83,2.83,0,0,1,1-1.65,2.74,2.74,0,0,1,1.78-.69H39.8A1.83,1.83,0,0,1,41.31,4a2,2,0,0,1,.35,1.65l-.07.25L39.32,16.59l-.06.26a2.86,2.86,0,0,1-1,1.65,2.8,2.8,0,0,1-1.79.68H23.57a1.79,1.79,0,0,1-1.47-.68,1.93,1.93,0,0,1-.35-1.65l.06-.26Zm10,10.67L36.32,5.92h-7L27.05,16.59Z"/><path class="cls-2" d="M59.39,16.85a2.86,2.86,0,0,1-1,1.65,2.8,2.8,0,0,1-1.79.68H41.4l0-.25a2.44,2.44,0,0,1,.39-.91,3,3,0,0,1,.67-.74,3.3,3.3,0,0,1,.83-.49,2.28,2.28,0,0,1,.92-.2h9.94l.87-4H45a1.71,1.71,0,0,1-1.44-.69,2,2,0,0,1-.35-1.61l.07-.32.86-4,.06-.25a2.83,2.83,0,0,1,1-1.65,2.74,2.74,0,0,1,1.79-.69H62.27l0,.26a3,3,0,0,1-1.06,1.64,2.74,2.74,0,0,1-1.79.69H49.45l-.7,3.36-.16.67h9.94a1.82,1.82,0,0,1,1.5.68,1.91,1.91,0,0,1,.32,1.68l0,.26-.87,4Z"/><path class="cls-2" d="M66.84,16.56H73l-.06.32a2.77,2.77,0,0,1-1,1.63,2.7,2.7,0,0,1-1.77.67H63.29a1.7,1.7,0,0,1-1.44-.67,2,2,0,0,1-.32-1.63l.07-.32.16-.67L65.08,0h5.27l-.7,3.32h5.5L74.6,5.92H69.11L67,15.89Z"/><path class="cls-2" d="M95,10.2a3,3,0,0,1-1,1.68,2.76,2.76,0,0,1-1.79.69H82.21l-.86,4H93.62l-.07.26a2.86,2.86,0,0,1-1,1.65,2.78,2.78,0,0,1-1.79.68H77.86a1.8,1.8,0,0,1-1.47-.68A1.93,1.93,0,0,1,76,16.85l.06-.26L78.34,5.92l.07-.25a2.76,2.76,0,0,1,1-1.65,2.74,2.74,0,0,1,1.79-.69H94.1A1.82,1.82,0,0,1,95.6,4,1.93,1.93,0,0,1,96,5.67l-.06.25L95,10ZM83.61,5.92l-.86,4h7l.86-4Z"/><path class="cls-2" d="M16.32,5.92h5.27l.06-.25A1.93,1.93,0,0,0,21.3,4a1.8,1.8,0,0,0-1.5-.69H6.92A2.76,2.76,0,0,0,5.13,4a2.86,2.86,0,0,0-1,1.65L4,5.92,3.72,7.39,1.26,19.18H6.51L9,7.39l.32-1.47h7Z"/><path class="cls-2" d="M110.81,5.92h5.27l.06-.25A1.93,1.93,0,0,0,115.79,4a1.8,1.8,0,0,0-1.5-.69H101.41A2.76,2.76,0,0,0,99.62,4a2.86,2.86,0,0,0-1,1.65l-.06.25-.32,1.47L95.76,19.18H101l2.49-11.79.32-1.47h7Z"/><path class="cls-1" d="M144.31.7A1.75,1.75,0,0,0,142.83,0H129.92a2.74,2.74,0,0,0-1.79.69,2.93,2.93,0,0,0-1.06,1.67l0,.26-2.94,14-.06.26a1.86,1.86,0,0,0,.32,1.65,1.79,1.79,0,0,0,1.47.68h6.37a5,5,0,0,1-.21-.69,5.08,5.08,0,0,1-.07-1.9h-2.58l3-14h7l-.64,2.88L137.3,12a5.27,5.27,0,0,1,4.64,3l2-9.54.64-2.88.06-.32A1.88,1.88,0,0,0,144.31.7Z"/><path class="cls-2" d="M135.24,13.45l.76-.29.41-.07a4.29,4.29,0,0,1,4.72,2.58,4.36,4.36,0,0,1,.3,2.2c-.28,2.71-.57,5.42-.85,8.13,0,.05,0,.09,0,.15l-.13-.11-6.08-5.47a4.3,4.3,0,0,1,.43-6.83Zm-.49,4.76a2.57,2.57,0,1,0,1.43-3.27A2.55,2.55,0,0,0,134.75,18.21Z"/><polygon class="cls-1" points="123.99 3.33 124.69 0 119.42 0.01 118.72 3.33 123.99 3.33"/><polygon class="cls-1" points="118.19 5.92 115.43 19.19 120.67 19.18 123.45 5.91 118.19 5.92"/><polygon class="cls-1" points="13.11 21.81 12.41 25.14 18.58 25.14 19.27 21.81 13.11 21.81"/></g></g></svg>