<?xml version="1.0" standalone="no"?>
<!DOCTYPE svg PUBLIC "-//W3C//DTD SVG 20010904//EN"
 "http://www.w3.org/TR/2001/REC-SVG-20010904/DTD/svg10.dtd">
<svg version="1.0" xmlns="http://www.w3.org/2000/svg"
 width="513.000000pt" height="513.000000pt" viewBox="0 0 513.000000 513.000000"
 preserveAspectRatio="xMidYMid meet">
<metadata>
Created by potrace 1.11, written by Peter Selinger 2001-2013
</metadata>
<g transform="translate(0.000000,513.000000) scale(0.100000,-0.100000)"
fill="#000000" stroke="none">
<path d="M800 4665 c-6 -27 -12 -61 -15 -74 -8 -44 -55 -264 -68 -321 -7 -30
-13 -66 -12 -80 l0 -25 428 1 c235 1 430 4 433 6 3 3 7 16 9 29 3 13 18 92 36
174 17 83 32 159 35 170 2 11 8 43 14 71 6 28 13 63 16 77 l4 27 -435 -2 -435
-3 -10 -50z"/>
<path d="M2480 4712 c-45 -5 -144 -44 -188 -74 -72 -49 -146 -132 -179 -199
-30 -62 -36 -84 -48 -159 -3 -19 -8 -42 -10 -50 -2 -8 -6 -26 -9 -40 -5 -28
-55 -264 -62 -295 -6 -22 -11 -48 -18 -85 -2 -14 -12 -59 -21 -100 -9 -41 -18
-84 -21 -95 -8 -41 -34 -171 -38 -190 -2 -11 -9 -38 -14 -60 -6 -22 -13 -53
-16 -70 -2 -16 -12 -64 -21 -105 -16 -71 -19 -88 -29 -142 -2 -13 -9 -43 -15
-68 -5 -25 -12 -57 -15 -72 -2 -15 -16 -80 -30 -145 -197 -903 -203 -944 -157
-1036 31 -64 83 -114 151 -145 l55 -26 555 -1 c305 -1 558 0 562 2 4 2 -1 27
-11 56 -26 74 -35 144 -36 267 l0 105 -202 0 c-111 0 -204 3 -207 6 -4 4 37
210 109 539 2 8 20 94 40 190 20 96 52 245 70 331 19 85 36 166 39 180 2 13
14 69 26 124 12 55 23 109 25 120 3 11 41 190 85 397 44 207 80 384 80 393 0
11 11 15 43 16 49 0 1012 0 1073 -1 l41 0 -38 -167 c-21 -93 -64 -287 -95
-433 -31 -146 -57 -269 -58 -275 -9 -39 -16 -74 -20 -95 -4 -23 -10 -51 -36
-175 -20 -90 -72 -342 -76 -364 -3 -14 -7 -28 -9 -31 -2 -4 12 -7 32 -8 191
-7 399 -98 545 -238 61 -59 118 -132 157 -204 31 -56 34 -55 47 16 3 14 16 78
31 142 14 64 29 139 34 165 4 26 11 57 14 67 4 11 8 32 11 46 3 14 21 101 40
192 19 92 37 178 40 192 3 14 7 32 9 40 2 8 7 31 10 50 3 19 17 87 31 150 14
63 27 125 30 138 2 12 6 32 8 45 3 12 7 33 10 46 3 14 15 70 26 125 12 56 48
223 82 371 71 318 76 381 36 465 -33 70 -79 116 -148 149 l-55 25 -1120 1
c-616 0 -1131 -1 -1145 -3z"/>
<path d="M645 3740 c-22 -3 -41 -9 -42 -15 0 -5 -26 -131 -57 -280 -31 -148
-58 -281 -61 -294 -2 -14 -16 -77 -29 -140 -24 -112 -102 -485 -110 -526 -2
-11 -20 -99 -41 -195 -20 -96 -39 -186 -41 -200 -12 -62 -36 -178 -44 -210 -5
-19 -11 -53 -15 -75 -3 -22 -16 -85 -29 -140 -13 -55 -21 -102 -19 -105 4 -4
863 -8 863 -3 0 0 23 108 50 240 28 131 52 247 54 258 2 11 36 171 75 355 69
330 76 363 86 418 3 15 9 45 14 67 6 22 12 51 15 65 7 38 33 164 56 270 11 52
23 106 25 120 3 14 22 106 43 205 22 99 38 182 36 184 -5 5 -784 7 -829 1z"/>
<path d="M3707 2574 c-1 -1 -31 -5 -67 -8 -171 -18 -355 -123 -465 -266 -131
-171 -182 -401 -132 -600 15 -60 24 -83 54 -144 59 -120 91 -157 314 -356 46
-41 106 -96 134 -121 27 -25 68 -61 89 -80 34 -30 95 -84 172 -154 12 -11 52
-47 90 -80 37 -33 79 -71 93 -85 14 -14 62 -57 105 -95 44 -39 105 -94 135
-122 59 -56 67 -61 68 -40 0 15 13 132 18 167 2 14 6 59 10 100 4 41 8 86 10
100 2 14 7 57 10 96 3 39 7 80 9 90 3 17 8 65 21 204 5 48 13 121 21 180 2 20
6 60 9 90 4 51 9 98 20 190 25 214 23 311 -10 420 -80 270 -311 470 -584 506
-47 6 -121 11 -124 8z m143 -303 c92 -25 182 -93 236 -176 175 -275 2 -624
-323 -652 -115 -10 -221 29 -312 113 -145 134 -180 330 -90 506 28 55 103 134
159 166 91 54 225 71 330 43z"/>
</g>
</svg>
