<svg xmlns="http://www.w3.org/2000/svg" viewBox="0 0 67.82 41"><defs><style>.cls-1{fill:#fde74d;}</style></defs><title>baseball_hover</title><g id="Layer_2" data-name="Layer 2"><g id="Layer_5" data-name="Layer 5"><path class="cls-1" d="M61.94,34.87l.12-.13a20.51,20.51,0,0,0,5.76-14.37,20,20,0,0,0-4.16.38l.13.66a1.51,1.51,0,0,1-1.2,1.75l-.28,0A1.51,1.51,0,0,1,60.84,22l-.08-.42a20.51,20.51,0,0,0-3.64,1.72l.34.58a1.5,1.5,0,0,1-1.29,2.26,1.51,1.51,0,0,1-1.29-.74L54.66,25c-.52.43-1,.88-1.51,1.36a5.51,5.51,0,0,0-.42.43c-.38.41-.74.82-1.07,1.24l.52.42a1.5,1.5,0,1,1-1.9,2.32L50,30.48a19.1,19.1,0,0,0-1.68,3.68l.58.2a1.53,1.53,0,0,1,1.06,1.43,1.51,1.51,0,0,1-1.51,1.5,1.67,1.67,0,0,1-.49-.08l-.42-.15A20.69,20.69,0,0,0,47.15,41,20.44,20.44,0,0,0,61.8,35Z"/><path class="cls-1" d="M50.4,7.89l-.28,0-.88-.16a22.89,22.89,0,0,1-2.11,4.55l.54.32a1.54,1.54,0,0,1,.76,1.68,1.5,1.5,0,0,1-2.22.94l-.8-.47a22.16,22.16,0,0,1-1.81,2.07c-.16.15-.32.32-.49.46-.44.42-.91.82-1.4,1.22l.46.55A1.51,1.51,0,0,1,42,21.13a1.49,1.49,0,0,1-2.11-.22l-.59-.73a22.49,22.49,0,0,1-4.54,2.16L35,23a1.49,1.49,0,0,1-.92,1.9,1.43,1.43,0,0,1-.5.09,1.5,1.5,0,0,1-1.41-1l-.31-.87a23.65,23.65,0,0,1-4.75.51A20.34,20.34,0,0,0,32.79,35c.31.32.62.61,1,.89a20.08,20.08,0,0,0,10.41,4.89,22.4,22.4,0,0,1,.5-4.7L44,35.82a1.53,1.53,0,0,1-1.06-1.45,1.5,1.5,0,0,1,2-1.4l.54.19a23.2,23.2,0,0,1,2.17-4.59L47,28.08a1.5,1.5,0,0,1,1.9-2.32l.43.35c.37-.46.76-.9,1.15-1.32a7.85,7.85,0,0,1,.58-.6,22.12,22.12,0,0,1,2.06-1.8l-.4-.68a1.5,1.5,0,0,1,2.58-1.53l.3.5a22.59,22.59,0,0,1,4.61-2.1l-.15-.78A1.5,1.5,0,0,1,61.75,16,1.54,1.54,0,0,1,63,17.31l.09.5a22.4,22.4,0,0,1,4.48-.45A20.16,20.16,0,0,0,62.75,7c-.31-.36-.6-.67-.92-1A20.46,20.46,0,0,0,50.49.25,23.18,23.18,0,0,1,50,4.8l.57.1a1.55,1.55,0,0,1,1.29,1.34A1.5,1.5,0,0,1,50.4,7.89Z"/><path class="cls-1" d="M30.71,20a1.5,1.5,0,0,1,1.4-2,1.54,1.54,0,0,1,1.45,1.07l.15.42a19.21,19.21,0,0,0,3.63-1.66l-.18-.22a1.5,1.5,0,0,1,2.31-1.9l.34.42c.44-.36.88-.73,1.29-1.12.17-.15.28-.26.38-.36a18.64,18.64,0,0,0,1.34-1.48L42.56,13a1.5,1.5,0,0,1,1.52-2.58l.47.28a20.78,20.78,0,0,0,1.73-3.59l-.34-.07a1.5,1.5,0,1,1,.57-2.94l.58.11A20.08,20.08,0,0,0,47.49,0h0a20.53,20.53,0,0,0-14,5.39L32.83,6a20.45,20.45,0,0,0-6,14.66,20.56,20.56,0,0,0,4-.35Z"/><path class="cls-1" d="M14.47,5.39l-1.68,8H24.92a23.43,23.43,0,0,1,4.42-8Z"/><path class="cls-1" d="M24.19,16.36H1.68L0,24.37H24.14a23.45,23.45,0,0,1,.05-8Z"/><path class="cls-1" d="M5.79,27.34l-1.68,8h25a23.42,23.42,0,0,1-4.28-8Z"/></g></g></svg>