<svg xmlns="http://www.w3.org/2000/svg" viewBox="0 0 41 41"><defs><style>.cls-1{fill:#a5a4a4;}</style></defs><title>baseball</title><g id="Layer_2" data-name="Layer 2"><g id="Layer_5" data-name="Layer 5"><path class="cls-1" d="M35.12,34.87l.12-.13A20.51,20.51,0,0,0,41,20.37a19.85,19.85,0,0,0-4.15.38l.12.66a1.5,1.5,0,0,1-1.2,1.75l-.28,0A1.51,1.51,0,0,1,34,22l-.08-.42a20.51,20.51,0,0,0-3.64,1.72l.34.58a1.5,1.5,0,0,1-.52,2.05,1.53,1.53,0,0,1-.76.21,1.51,1.51,0,0,1-1.3-.74L27.84,25c-.52.43-1,.88-1.51,1.36a5.51,5.51,0,0,0-.42.43c-.38.41-.74.82-1.07,1.24l.52.42a1.5,1.5,0,1,1-1.9,2.32l-.33-.27a19.73,19.73,0,0,0-1.68,3.68l.58.2a1.53,1.53,0,0,1,1.06,1.43,1.51,1.51,0,0,1-1.51,1.5,1.67,1.67,0,0,1-.49-.08l-.42-.15A20.69,20.69,0,0,0,20.33,41,20.48,20.48,0,0,0,35,35Z"/><path class="cls-1" d="M23.58,7.89l-.28,0-.87-.16a23.51,23.51,0,0,1-2.12,4.55l.54.32a1.54,1.54,0,0,1,.76,1.68,1.49,1.49,0,0,1-1.46,1.15,1.47,1.47,0,0,1-.75-.21l-.8-.47a23.84,23.84,0,0,1-1.82,2.07c-.15.15-.32.32-.49.46-.44.42-.91.82-1.4,1.22l.46.55a1.51,1.51,0,0,1-.22,2.11,1.47,1.47,0,0,1-.94.34A1.5,1.5,0,0,1,13,20.91l-.59-.73a22.49,22.49,0,0,1-4.54,2.16l.24.69a1.49,1.49,0,0,1-.92,1.9,1.41,1.41,0,0,1-.49.09A1.51,1.51,0,0,1,5.3,24L5,23.14a23.65,23.65,0,0,1-4.75.51A20.34,20.34,0,0,0,6,35a11.5,11.5,0,0,0,1,.89,20,20,0,0,0,10.4,4.89,22.4,22.4,0,0,1,.5-4.7l-.69-.24a1.53,1.53,0,0,1-1.06-1.45,1.5,1.5,0,0,1,2-1.4l.54.19a23.2,23.2,0,0,1,2.17-4.59l-.6-.49a1.5,1.5,0,1,1,1.89-2.32l.44.35q.56-.69,1.14-1.32a7.85,7.85,0,0,1,.58-.6,22.12,22.12,0,0,1,2.06-1.8l-.4-.68a1.5,1.5,0,0,1,2.58-1.53l.3.5a22.59,22.59,0,0,1,4.61-2.1l-.15-.78A1.5,1.5,0,0,1,34.93,16a1.54,1.54,0,0,1,1.27,1.27l.09.5a22.47,22.47,0,0,1,4.48-.45A20.08,20.08,0,0,0,35.93,7c-.31-.36-.6-.67-.92-1A20.46,20.46,0,0,0,23.68.25a23.19,23.19,0,0,1-.47,4.55l.57.1a1.55,1.55,0,0,1,1.29,1.34A1.5,1.5,0,0,1,23.58,7.89Z"/><path class="cls-1" d="M3.89,20a1.51,1.51,0,0,1,1.4-2,1.53,1.53,0,0,1,1.45,1.07l.15.42a19.21,19.21,0,0,0,3.63-1.66l-.18-.22a1.5,1.5,0,0,1,2.32-1.9l.33.42c.45-.36.88-.73,1.29-1.12.17-.15.28-.26.38-.36A18.64,18.64,0,0,0,16,13.19L15.74,13a1.5,1.5,0,0,1,1.52-2.58l.47.28a20.08,20.08,0,0,0,1.73-3.59l-.33-.07a1.5,1.5,0,1,1,.56-2.94l.58.11A20.08,20.08,0,0,0,20.67,0h0a20.53,20.53,0,0,0-14,5.39L6,6A20.45,20.45,0,0,0,0,20.64a20.49,20.49,0,0,0,4-.35Z"/></g></g></svg>