<svg xmlns="http://www.w3.org/2000/svg" viewBox="0 0 56.8 56.42"><defs><style>.cls-1{fill:#a5a4a4;}</style></defs><title>basketball</title><g id="Layer_2" data-name="Layer 2"><g id="Layer_5" data-name="Layer 5"><path class="cls-1" d="M37.33,34.26c4,4.47,7.75,9.08,11.25,13.73,5.36-5.46,8-12.84,8.22-20.47A28.16,28.16,0,0,0,37.33,34.26Z"/><path class="cls-1" d="M27.45,56.41A28.08,28.08,0,0,0,46.26,49.9c-3.46-4.6-7.18-9.15-11.11-13.57A28.09,28.09,0,0,0,27.45,56.41Z"/><path class="cls-1" d="M20.3,21.1C16,17,11.5,13.19,7,9.62A28.2,28.2,0,0,0,0,28.93,28.15,28.15,0,0,0,20.3,21.1Z"/><path class="cls-1" d="M33.13,34.07c-1.35-1.48-2.76-3-4.18-4.45A229.75,229.75,0,0,1,8.06,48c.06.06.13.12.18.18a28,28,0,0,0,16.2,8A31.21,31.21,0,0,1,33.13,34.07Z"/><path class="cls-1" d="M56.53,24.51A30.62,30.62,0,0,0,48.44,8.28L48.1,8a222.91,222.91,0,0,1-17,19.51c1.45,1.51,2.88,3,4.27,4.55A31.22,31.22,0,0,1,56.53,24.51Z"/><path class="cls-1" d="M29,0h-.78A28.13,28.13,0,0,0,9.11,7.46C13.58,11,18,14.87,22.36,18.91A28.2,28.2,0,0,0,29,0Z"/><path class="cls-1" d="M26,26.63c-1.06-1.06-2.21-2.19-3.55-3.47A31.21,31.21,0,0,1,.8,31.94l-.55,0A27.7,27.7,0,0,0,6.1,45.72,227.07,227.07,0,0,0,26.87,27.46C26.6,27.18,26.32,26.91,26,26.63Z"/><path class="cls-1" d="M29,25.32A220.4,220.4,0,0,0,45.79,6.07,27.86,27.86,0,0,0,32,.26,31.14,31.14,0,0,1,24.54,21c1.37,1.31,2.54,2.46,3.61,3.53Z"/></g></g></svg>