<svg xmlns="http://www.w3.org/2000/svg" viewBox="0 0 83.45 56.42"><defs><style>.cls-1{fill:#fde74d;}</style></defs><title>basketball_hover</title><g id="Layer_2" data-name="Layer 2"><g id="Layer_5" data-name="Layer 5"><path class="cls-1" d="M14.47,10.38l-1.68,8H25.41a31,31,0,0,1,4-8Z"/><path class="cls-1" d="M24.58,21.35H1.68L0,29.36H23.85c0-.38,0-.76,0-1.15A31.63,31.63,0,0,1,24.58,21.35Z"/><path class="cls-1" d="M5.79,32.33l-1.68,8H26.26a31.18,31.18,0,0,1-2.16-8Z"/><path class="cls-1" d="M64,34.26c4,4.47,7.76,9.08,11.26,13.73,5.36-5.46,8-12.84,8.22-20.47A28.2,28.2,0,0,0,64,34.26Z"/><path class="cls-1" d="M54.09,56.41A28.09,28.09,0,0,0,72.91,49.9c-3.46-4.6-7.19-9.15-11.11-13.57A28.14,28.14,0,0,0,54.09,56.41Z"/><path class="cls-1" d="M47,21.1C42.61,17,38.15,13.19,33.66,9.62a28.2,28.2,0,0,0-7,19.31A28.15,28.15,0,0,0,47,21.1Z"/><path class="cls-1" d="M59.78,34.07c-1.36-1.48-2.76-3-4.18-4.45A229.75,229.75,0,0,1,34.71,48l.18.18a28,28,0,0,0,16.2,8A31.12,31.12,0,0,1,59.78,34.07Z"/><path class="cls-1" d="M83.18,24.51A30.69,30.69,0,0,0,75.09,8.28L74.75,8a224.59,224.59,0,0,1-17,19.51C59.15,29,60.58,30.51,62,32A31.2,31.2,0,0,1,83.18,24.51Z"/><path class="cls-1" d="M55.62,0h-.78A28.13,28.13,0,0,0,35.76,7.46C40.23,11,44.67,14.87,49,18.91A28.16,28.16,0,0,0,55.62,0Z"/><path class="cls-1" d="M52.69,26.63c-1.06-1.06-2.21-2.19-3.55-3.47a31.21,31.21,0,0,1-21.7,8.78l-.54,0a27.61,27.61,0,0,0,5.85,13.8A227.07,227.07,0,0,0,53.52,27.46Z"/><path class="cls-1" d="M55.61,25.32A218.62,218.62,0,0,0,72.43,6.07,27.79,27.79,0,0,0,58.62.26,31.14,31.14,0,0,1,51.19,21c1.37,1.31,2.54,2.46,3.61,3.53Z"/></g></g></svg>