<svg xmlns="http://www.w3.org/2000/svg" viewBox="0 0 52.89 52.89"><defs><style>.cls-1{fill:#a5a4a4;}</style></defs><title>football</title><g id="Layer_2" data-name="Layer 2"><g id="Layer_5" data-name="Layer 5"><path class="cls-1" d="M.56,35.81A42.68,42.68,0,0,0,1,51.89H1a42.68,42.68,0,0,0,16.08.44Z"/><path class="cls-1" d="M51.89,1A42.68,42.68,0,0,0,35.81.56L52.33,17.08A42.68,42.68,0,0,0,51.89,1Z"/><path class="cls-1" d="M32.3,1.29a43.11,43.11,0,0,0-31,31l19.3,19.3a43.11,43.11,0,0,0,31-31Zm6.17,16.62L37.25,16.7l-2.87,2.87,1.21,1.22-.66.66-1.21-1.21-2.88,2.87,1.22,1.21L31.4,25l-1.22-1.22-2.87,2.88,1.21,1.21-.66.66-1.21-1.21-2.88,2.87L25,31.4l-.67.66-1.21-1.22-2.87,2.88,1.21,1.21-.66.66-1.22-1.21L16.7,37.25l1.21,1.22-.66.66L16,37.91,15,39l-1.06-1.06L15,36.85l-1.22-1.21.66-.66,1.22,1.21,2.87-2.87L17.3,32.1l.66-.66,1.21,1.22,2.88-2.88-1.21-1.21.66-.66,1.21,1.21,2.88-2.87L24.37,25l.66-.66,1.22,1.22,2.87-2.88L27.91,21.5l.66-.66,1.21,1.21,2.88-2.88L31.44,18l.66-.66,1.22,1.21,2.87-2.87L35,14.42l.66-.66L36.85,15l1.06-1.06L39,15,37.91,16l1.22,1.21Z"/></g></g></svg>