<svg xmlns="http://www.w3.org/2000/svg" viewBox="0 0 74.07 52.89"><defs><style>.cls-1{fill:#fde74d;}</style></defs><title>football_hover</title><g id="Layer_2" data-name="Layer 2"><g id="Layer_5" data-name="Layer 5"><path class="cls-1" d="M21.74,35.81a42.67,42.67,0,0,0,.43,16.08h0a42.68,42.68,0,0,0,16.08.44Z"/><path class="cls-1" d="M73.07,1A42.68,42.68,0,0,0,57,.56L73.51,17.08A42.89,42.89,0,0,0,73.07,1Z"/><path class="cls-1" d="M53.48,1.29a43.1,43.1,0,0,0-31,31L41.76,51.6a43.13,43.13,0,0,0,31-31Zm6.16,16.62L58.43,16.7l-2.88,2.87,1.22,1.22-.66.66-1.22-1.21L52,23.11l1.21,1.21-.66.67-1.21-1.22-2.88,2.88,1.22,1.21-.66.66-1.22-1.21L45,30.18l1.21,1.22-.66.66-1.21-1.22-2.88,2.88,1.21,1.21-.66.66-1.21-1.21-2.88,2.87,1.22,1.22-.66.66-1.22-1.22L36.15,39l-1.06-1.06,1.06-1.06-1.21-1.21L35.6,35l1.21,1.21,2.88-2.87L38.47,32.1l.67-.66,1.21,1.22,2.87-2.88L42,28.57l.66-.66,1.22,1.21,2.87-2.87L45.55,25l.66-.66,1.21,1.22,2.88-2.88L49.08,21.5l.66-.66L51,22.05l2.87-2.88L52.62,18l.66-.66,1.21,1.21,2.88-2.87-1.22-1.22.66-.66L58,15l1.06-1.06L60.15,15,59.09,16l1.21,1.21Z"/><path class="cls-1" d="M19.39,32.25H5.79l-1.68,8H18.25A44.81,44.81,0,0,1,19.39,32.25Z"/><path class="cls-1" d="M23.56,21.27H1.68L0,29.28H20.21A45.54,45.54,0,0,1,23.56,21.27Z"/><path class="cls-1" d="M28.27,14.13a46.87,46.87,0,0,1,3.46-3.83H14.47l-1.68,8H25.28A46.08,46.08,0,0,1,28.27,14.13Z"/></g></g></svg>