<svg xmlns="http://www.w3.org/2000/svg" viewBox="0 0 56.59 56.6"><defs><style>.cls-1{fill:#a5a4a4;fill-rule:evenodd;}</style></defs><title>soccer</title><g id="Layer_2" data-name="Layer 2"><g id="Layer_5" data-name="Layer 5"><path class="cls-1" d="M1,21c-.12.44-.23.88-.33,1.33C.75,21.84.86,21.4,1,21Z"/><path class="cls-1" d="M.57,22.66c-.09.47-.18.93-.25,1.4C.39,23.59.48,23.13.57,22.66Z"/><path class="cls-1" d="M1.07,20.62c.09-.31.19-.62.29-.94v0C1.26,20,1.16,20.3,1.07,20.62Z"/><path class="cls-1" d="M48.92,20.1a22.66,22.66,0,0,0-2.6-12.27,26,26,0,0,0-3-2.23A15.53,15.53,0,0,0,32.85,7.7a34.85,34.85,0,0,1,.74,4.62,71,71,0,0,1,12.1,8.77Zm-8.8-4.32c-1-.68-1.94-1.34-2.92-2s-2-1.25-3-1.86l0,0v0c-.07-.63-.15-1.27-.24-1.91s-.21-1.27-.35-1.9V8l.05,0a16.66,16.66,0,0,1,4.78-1.71,12.76,12.76,0,0,1,4.65-.09h0c.46.3.94.63,1.39,1s.9.7,1.32,1.06h0a16.46,16.46,0,0,1,1.66,4.07,24.74,24.74,0,0,1,.81,5.05c0,.37,0,.74,0,1.12s0,.72,0,1.08v.06h-.05l-2.37.72h0l0,0C44.91,19.53,44,18.74,43,18S41.11,16.49,40.12,15.78Z"/><path class="cls-1" d="M39.06,54.46l.55-.23Z"/><path class="cls-1" d="M23.05,56.1h0l-.11,0Z"/><path class="cls-1" d="M21.64,41l3.49-4.45c-1.77-4.75-3.51-9.38-5-14.22l-5.26-1.27c-3.52,3.47-5.67,7-8.16,11.26a38.6,38.6,0,0,0,1.83,5.22A47.29,47.29,0,0,0,21.64,41ZM7.8,33.81c-.15-.45-.29-.91-.41-1.36V32.4c.58-1,1.16-2,1.76-2.93s1.21-1.92,1.87-2.85,1.24-1.69,1.9-2.5,1.37-1.58,2.1-2.33l0,0h0l4.48,1.08h.05v0c.71,2.27,1.48,4.53,2.29,6.78s1.64,4.49,2.47,6.73v0l0,0-3,3.8,0,0h0c-1.05-.16-2.09-.33-3.13-.53s-2.07-.41-3.11-.66S13,38.57,12,38.23s-2-.72-3-1.14H9v0c-.14-.31-.27-.63-.39-.95s-.25-.64-.37-1S7.94,34.26,7.8,33.81Z"/><path class="cls-1" d="M9.66,36.43c.92.38,1.83.73,2.77,1s1.88.59,2.85.84,1.91.43,2.87.61,1.91.34,2.85.49l2.44-3.11c-.79-2.11-1.57-4.21-2.32-6.33S19.63,25.73,19,23.58l-3.63-.87a36.12,36.12,0,0,0-3.8,4.69C10.38,29,9.35,30.76,8.3,32.55c.17.62.38,1.27.61,1.92S9.4,35.81,9.66,36.43Z"/><path class="cls-1" d="M48.93,23l-1.5.46c-.47,2.31-1,4.51-1.69,6.66a63.09,63.09,0,0,1-2.37,6.47l1.1,2.05a27.94,27.94,0,0,0,4.36-1.12,10.89,10.89,0,0,0,3.82-2.21c.13-.45.27-.91.39-1.38s.23-.93.32-1.39a28.82,28.82,0,0,0-1.64-5.07A17.06,17.06,0,0,0,48.93,23Z"/><path class="cls-1" d="M39.79,38.87c-2.15.08-4.29.1-6.44.08s-4.31-.06-6.45-.13L24.41,42c.35.73.71,1.46,1.1,2.17s.82,1.42,1.27,2.12c.61.89,1.27,1.76,1.94,2.62.53.65,1.06,1.3,1.6,1.94h2.53a43.77,43.77,0,0,0,4.43-4.37A34.3,34.3,0,0,0,41,41Z"/><path class="cls-1" d="M18.66,5.07a38,38,0,0,0-4.54,3.5,57.1,57.1,0,0,0,1,11.23l5.37,1.29c3.87-3,7.7-6,11.73-8.83-.17-1.5-.39-3-.7-4.5A28.33,28.33,0,0,0,18.66,5.07ZM31.55,12c-1.91,1.33-3.79,2.72-5.64,4.12S22.23,19,20.4,20.38l0,0h0l-4.58-1.11H15.7v-.05c-.15-.84-.29-1.67-.41-2.51S15.07,15,15,14.19s-.13-1.77-.16-2.65-.06-1.77-.06-2.65v0l0,0c.36-.33.74-.66,1.13-1L17.09,7,18,6.33c.28-.21.58-.41.87-.6l0,0h0c1,0,2.08.06,3.1.14A29.18,29.18,0,0,1,25,6.26a23.41,23.41,0,0,1,3,.81C29,7.4,30,7.78,31,8.2l0,0v0c.13.61.23,1.22.32,1.83s.18,1.22.25,1.84v0Z"/><path class="cls-1" d="M33.49,34.55c2,0,4,0,6-.13a50.82,50.82,0,0,0,2.11-5.78,61.45,61.45,0,0,0,1.48-6,55.26,55.26,0,0,0-4.8-3.9c-1.66-1.2-3.37-2.33-5.16-3.41-1.66,1.16-3.31,2.33-4.94,3.53S25,21.3,23.37,22.54c.61,2,1.27,4,1.95,6s1.39,4,2.11,5.94C29.46,34.52,31.47,34.56,33.49,34.55Z"/><path class="cls-1" d="M40.28,2.66c-.28-.13-.57-.23-.85-.35a6.11,6.11,0,0,1,1.21,1.53l0,.1h-.12a13,13,0,0,0-4.38.56A22.23,22.23,0,0,0,32,6.2H32c-1-.44-2-.84-3-1.19a24.74,24.74,0,0,0-3.12-.86C25,4,24.1,3.84,23.23,3.74s-1.76-.14-2.63-.18h-.11l0-.09c.33-.73.57-1.31.87-1.86a9.83,9.83,0,0,1,.51-.87c-.21.05-.42.09-.63.15a12.57,12.57,0,0,0-1.72,3.28A27.86,27.86,0,0,1,32,6.92c4.51-2.37,7.7-2.71,10.47-2.08A19.67,19.67,0,0,0,40.28,2.66Z"/><path class="cls-1" d="M2.31,17.27a16.31,16.31,0,0,0-.53,3.38,32.22,32.22,0,0,0-.05,4.28,8.32,8.32,0,0,0,1.43,1.81,21.26,21.26,0,0,0,2.31,2c1-1.61,2-3.14,3.08-4.63a36.46,36.46,0,0,1,3.65-4.25c-.16-.82-.3-1.65-.43-2.47s-.22-1.69-.3-2.54c-.06-.65-.11-1.31-.14-2s-.06-1.25-.08-1.89A13.08,13.08,0,0,0,5.8,13.08,17.46,17.46,0,0,0,3.12,15.4c-.3.58-.57,1.17-.83,1.77l0,0v.05Z"/><path class="cls-1" d="M40.52,35.88a57.91,57.91,0,0,0,4.22-13.75A63.64,63.64,0,0,0,33.1,13.58c-3.92,2.7-7.71,5.48-11.45,8.41,1.43,4.71,3,9.31,4.73,13.91C31.13,36.1,35.78,36.07,40.52,35.88ZM22.4,22.27v0l0,0q2.61-2.05,5.28-4t5.39-3.84l0,0,0,0c1,.57,1.92,1.15,2.85,1.76s1.85,1.24,2.76,1.89,1.82,1.37,2.69,2.08,1.73,1.46,2.56,2.24l0,0v0c-.21,1.11-.44,2.22-.71,3.32s-.57,2.19-.9,3.28-.68,2.11-1.06,3.14-.81,2.07-1.26,3.08v0h0c-2.2.09-4.39.13-6.59.14s-4.39,0-6.59-.11h-.05v0q-1.2-3.19-2.31-6.45C23.78,26.63,23.07,24.46,22.4,22.27Z"/><path class="cls-1" d="M53.63,38a23,23,0,0,1-9.81,3.79,33.06,33.06,0,0,1-8.39,10.32,12.87,12.87,0,0,0,4.34,2l.95-.43-.06,0L40,53.54a15.51,15.51,0,0,1-1.87-.65,11.61,11.61,0,0,1-1.54-.76l-.09-.06.08,0a39.42,39.42,0,0,0,4.28-4.43,32.7,32.7,0,0,0,3.41-5.18l0,0h0c.84-.14,1.66-.32,2.47-.52a19.32,19.32,0,0,0,2.41-.78c.64-.25,1.28-.55,1.89-.86s1.23-.65,1.83-1l.11-.07v.14c0,.35,0,.7-.1,1.05a9.85,9.85,0,0,1-.18,1l-.36,1.84c.35-.55.68-1.12,1-1.7A16.27,16.27,0,0,0,53.63,38Z"/><path class="cls-1" d="M30.24,8.82A25.85,25.85,0,0,0,24.82,7.1a33.22,33.22,0,0,0-5.74-.53,8.86,8.86,0,0,0-.73.52l-.75.54-1,.79c-.33.26-.66.53-1,.8,0,.82,0,1.62.06,2.44s.09,1.63.16,2.45.15,1.52.26,2.27.21,1.47.34,2.2l3.73.91c1.73-1.36,3.46-2.71,5.21-4s3.5-2.63,5.29-3.89c-.06-.46-.13-.92-.2-1.37S30.34,9.27,30.24,8.82Z"/><path class="cls-1" d="M6.08,41.92a24.22,24.22,0,0,0-.22,3.61q.32.42.66.84a21.7,21.7,0,0,1,1.22-8.52,49.7,49.7,0,0,1-2-5.49A14.8,14.8,0,0,1,.09,26c.05-.56.11-1.12.19-1.68A28.59,28.59,0,0,0,0,27.5v-.23A14.83,14.83,0,0,0,1.88,29.9,17.22,17.22,0,0,0,5.2,32.74h0v0c.07.22.16.47.24.73A41.65,41.65,0,0,0,7,37.85v.06A20.21,20.21,0,0,0,6.08,41.92Z"/><path class="cls-1" d="M47.48,19a23.77,23.77,0,0,0-.6-5.59,16.5,16.5,0,0,0-1.71-4.6c-.38-.32-.77-.64-1.17-.93s-.81-.58-1.23-.85a12.23,12.23,0,0,0-4.05.07,16.57,16.57,0,0,0-4.18,1.39c.1.49.18,1,.25,1.46s.14,1,.2,1.49q3,1.79,5.72,3.73a64.83,64.83,0,0,1,5.35,4.26Z"/><path class="cls-1" d="M16.22,53.88l2.69-.31a19.36,19.36,0,0,0,3.29-.66,23.39,23.39,0,0,0,3-1.13c-.42-.53-.83-1.06-1.23-1.62s-.8-1.15-1.17-1.75c-.48-.77-.93-1.54-1.33-2.34s-.78-1.58-1.14-2.39c-1.87-.29-3.68-.61-5.46-1a37.7,37.7,0,0,1-5.25-1.61,14.34,14.34,0,0,0-.5,3.16c-.06,1.09,0,2.19,0,3.39l0,1.56A28.14,28.14,0,0,0,16.37,54Z"/><path class="cls-1" d="M27.52,52.27a34.85,34.85,0,0,1-6.15-9.94A45.24,45.24,0,0,1,8.75,39.06c-1.23,3-1.2,5.47-1.11,8.58l.66.69v-.7a33.47,33.47,0,0,1,0-3.89A14.18,14.18,0,0,1,9.09,40l0-.07.07,0a35.52,35.52,0,0,0,5.74,1.86c2,.45,3.93.8,6,1.11h.05v0c.38.87.78,1.73,1.2,2.57S23,47.17,23.53,48s.91,1.39,1.41,2.07,1,1.32,1.54,2l.05.07-.07,0a23.29,23.29,0,0,1-3.61,1.49,21.36,21.36,0,0,1-3.85.82l-1.23.14-.25-.1L19,55l.1,0A22.52,22.52,0,0,0,27.52,52.27Z"/><path class="cls-1" d="M20.26,55.42l.41.12Z"/><path class="cls-1" d="M4.65,33.76l-.15-.47a18.47,18.47,0,0,1-3.34-2.92A15.73,15.73,0,0,1,0,28.87,28.3,28.3,0,0,0,5,44.39,22.08,22.08,0,0,1,5.22,42a22.48,22.48,0,0,1,.91-4C5.55,36.57,5.11,35.17,4.65,33.76Z"/><path class="cls-1" d="M24.6,56.36l-.12,0Z"/><path class="cls-1" d="M7.57,47.56c-.33-.36-.65-.71-1-1.08Q7.07,47,7.57,47.56Z"/><path class="cls-1" d="M35.28,55.16A12.26,12.26,0,0,1,33.19,54H29.85a26.37,26.37,0,0,1-3.69,1.83c-.48.19-1,.37-1.48.53a28,28,0,0,0,11.44-.88Z"/><path class="cls-1" d="M5.94,30.82a45.68,45.68,0,0,1,7.87-10.48,52.15,52.15,0,0,1-1.1-11.18,15.39,15.39,0,0,0-8,3.42c.17-.26.35-.52.54-.77a17.24,17.24,0,0,1,8-3.74,50.25,50.25,0,0,1,5.05-3.79,14.36,14.36,0,0,1,1.9-3.1l-.59.18a21.31,21.31,0,0,0-1.8,2.47h0a35.09,35.09,0,0,0-3.9,2.89l-.9.72h0A14.31,14.31,0,0,0,8.62,9.24a26.41,26.41,0,0,0-2.89,2q-.79,1-1.5,2.19a16.42,16.42,0,0,1,2-1.51,13,13,0,0,1,5.8-2h.08V10c0,.79,0,1.58.07,2.37s.09,1.59.17,2.37.19,1.79.33,2.68.29,1.78.46,2.66v0l0,0a36.74,36.74,0,0,0-4,4.61,59.22,59.22,0,0,0-3.35,5.11l0,.05-.06,0a20.26,20.26,0,0,1-3-2.39A8.54,8.54,0,0,1,1,25.24h0v0a17.5,17.5,0,0,1,.11-3.57c0-.35.11-.71.17-1.06a40.18,40.18,0,0,0-.7,4.87A14,14,0,0,0,5.94,30.82Z"/><path class="cls-1" d="M51.87,41.22c0-.12,0-.22.05-.33a1.77,1.77,0,0,1,0-.2c-.39.21-.77.42-1.17.6s-.88.4-1.33.58a21.9,21.9,0,0,1-2.33.77c-.77.2-1.55.37-2.34.5a32.83,32.83,0,0,1-3.12,4.73,36.3,36.3,0,0,1-3.76,4c.34.16.69.29,1,.43s.86.29,1.24.4l1.59.45-.09,0a28.36,28.36,0,0,0,9.42-8.17Z"/><path class="cls-1" d="M55.11,37v0l.14-.47c.34-1.19.69-2.38.92-3.59h0v0l0,0c.09-.53.16-1.07.22-1.61a13.08,13.08,0,0,1-.85,1.4c-.26,1.44-.76,3.06-1.09,4.23,0,.79-.12,1.69-.24,2.62.27-.63.53-1.27.76-1.92l.09-.29C55.1,37.23,55.11,37.13,55.11,37Z"/><path class="cls-1" d="M54.31,23.77A21.87,21.87,0,0,1,56,27.63l.58-1.14a28.37,28.37,0,0,0-5.21-14.62,8.08,8.08,0,0,0-1-.37,25.49,25.49,0,0,1,1,4.05,22.77,22.77,0,0,1,.16,4.38A21.49,21.49,0,0,1,54.31,23.77Z"/><path class="cls-1" d="M53.89,40.37l.13-.3Z"/><path class="cls-1" d="M56.56,29.69c0-.49,0-1,0-1.45L56,29.38l-.09.17a.83.83,0,0,1-.09.16l-.08.15,0-.16c-.2-.72-.42-1.44-.66-2.15s-.5-1.4-.81-2.08a17.85,17.85,0,0,0-1.56-2.74,22.72,22.72,0,0,0-2-2.46l0,0v0a29.44,29.44,0,0,0,0-3,17.46,17.46,0,0,0-.35-2.95c-.14-.67-.32-1.34-.52-2s-.44-1.31-.68-2l-.06-.13.15,0a9.78,9.78,0,0,1,1.21.47c-.26-.33-.53-.66-.81-1-.59-.32-1.18-.63-1.77-.9,1.83,4.57,2.43,6.59,2.16,11.64,3.4,3.72,4.24,6.31,5.45,10.92A11.56,11.56,0,0,0,56.56,29.69Z"/><path class="cls-1" d="M49.38,21.31l-3.22,1a65.21,65.21,0,0,1-4.44,14.37l2,3.61c4.75-.78,8.07-1.9,10.27-4.17a33.15,33.15,0,0,0,.94-3.6C53.77,27.61,52,23.92,49.38,21.31Zm4.85,11.21c-.11.55-.23,1.09-.37,1.64s-.29,1.07-.46,1.59h0l0,0A11.58,11.58,0,0,1,49,38.34a31,31,0,0,1-5,1.22H44l0,0-1.55-2.86V36.6c.47-1.09.92-2.19,1.34-3.3s.79-2.23,1.14-3.37.69-2.34,1-3.53.56-2.38.79-3.57v0h0L49.16,22h0l0,0a17,17,0,0,1,3.19,4.88,28.93,28.93,0,0,1,1.82,5.56h0Z"/><path class="cls-1" d="M12.64,6.68l.76-.61a41.46,41.46,0,0,1,3.79-2.83,13.17,13.17,0,0,1,1.24-1.46A28.31,28.31,0,0,0,7.51,9.1,14.17,14.17,0,0,1,12.64,6.68Z"/><path class="cls-1" d="M37.59,1.57a28.2,28.2,0,0,0-14.76-1L22.59,1c-.25.5-.48,1-.78,1.79a29.54,29.54,0,0,1,5.1.76A29.73,29.73,0,0,1,32,5.27a24,24,0,0,1,3.3-1.37,16.53,16.53,0,0,1,3.4-.75A3.48,3.48,0,0,0,37.59,1.57Z"/><path class="cls-1" d="M7.33,9.28l-.13.15Z"/><path class="cls-1" d="M43.07,4.18c.3.29.59.57.79.81a26.65,26.65,0,0,1,3,2.17l.08.06a4.86,4.86,0,0,1,.45.23A28.28,28.28,0,0,0,43.07,4.18Z"/><path class="cls-1" d="M47.84,7.84l-.91-.51h0l-.08-.07a30,30,0,0,0-3.06-2.15h0a16.44,16.44,0,0,0-1.32-1.3c-.18-.11-.38-.2-.57-.3a16.43,16.43,0,0,1,1.64,1.7A31.78,31.78,0,0,1,47,7.62c.48.24,1,.49,1.43.76Z"/><path class="cls-1" d="M40.62,37.36c-4.84.18-9.57.13-14.42,0l-3.52,4.48a37.07,37.07,0,0,0,6.54,10.06H34A35.6,35.6,0,0,0,42.74,41Zm-.34,6.54c-.6.92-1.26,1.8-2,2.67a34.74,34.74,0,0,1-2.55,2.74c-.72.72-1.48,1.4-2.25,2.08H29.67c-.55-.65-1.09-1.3-1.63-2-.68-.87-1.35-1.75-2-2.66s-1-1.56-1.42-2.37-.83-1.63-1.22-2.47v0l0,0,3-3.86,0,0h0c2.27.08,4.56.13,6.84.14s4.56,0,6.85-.09h0l0,0L42,41l0,0,0,0C41.45,42,40.89,43,40.28,43.9Z"/><path class="cls-1" d="M34.12,52.84H28.86a24.21,24.21,0,0,1-7.57,2.85c.48.12,1,.23,1.45.33a29.1,29.1,0,0,0,3.12-1,27.13,27.13,0,0,0,3.5-1.74h4.3a11.52,11.52,0,0,0,2,1.1,16.78,16.78,0,0,0,1.93.64c.37-.13.74-.26,1.1-.41A11.9,11.9,0,0,1,34.12,52.84Z"/></g></g></svg>