<svg xmlns="http://www.w3.org/2000/svg" viewBox="0 0 56.6 56.6"><defs><style>.cls-1{fill:#a5a4a4;}</style></defs><title>soccer</title><g id="Layer_2" data-name="Layer 2"><g id="Layer_5" data-name="Layer 5"><path class="cls-1" d="M28.3,0A28.3,28.3,0,1,0,56.6,28.3,28.3,28.3,0,0,0,28.3,0Zm3.85,11.53,10.5-4.28.14-.08a25.28,25.28,0,0,1,2.5,1.93c.39.33.78.69,1.19,1.11a25,25,0,0,1,4.7,6.52l-5.31,8.54L38.32,26l-7.13-7.67Zm-17.24-5a25.3,25.3,0,0,1,8.33-3.32l6.29,7.45-1,7.19L19,22.28l-5.86-2.8L12.3,8.54s0-.08,0-.12A25.21,25.21,0,0,1,14.91,6.54ZM4.28,36.79a24.85,24.85,0,0,1-1.4-6.66l0-.92A27.65,27.65,0,0,1,3,25.56l8.94-3.64,5.81,2.78L19,34.93l-4.82,4.29Zm23.49,17q-.64,0-1.29-.06A25.08,25.08,0,0,1,16.59,51l-.71-9.66L20.71,37,31.1,39.06l2.21,5.83Zm19-7.78L35.62,43.31l-2-5.38,5.15-9.23L46.3,28l6.53,7.73A25.49,25.49,0,0,1,46.75,46Z"/></g></g></svg>