<svg xmlns="http://www.w3.org/2000/svg" viewBox="0 0 83.35 56.6"><defs><style>.cls-1{fill:#fde74d;}</style></defs><title>soccer_hover</title><g id="Layer_2" data-name="Layer 2"><g id="Layer_5" data-name="Layer 5"><path class="cls-1" d="M55.05,0a28.3,28.3,0,1,0,28.3,28.3A28.3,28.3,0,0,0,55.05,0ZM58.9,11.53,69.4,7.25l.14-.08A24.16,24.16,0,0,1,72,9.1c.39.33.78.69,1.2,1.11a25.47,25.47,0,0,1,4.7,6.52l-5.32,8.54L65.07,26,58,18.34Zm-17.24-5A25.39,25.39,0,0,1,50,3.22l6.29,7.45-1,7.19-9.55,4.42-5.86-2.8-.8-10.94a.53.53,0,0,1,0-.12A25.21,25.21,0,0,1,41.66,6.54ZM31,36.79a24.85,24.85,0,0,1-1.4-6.66l-.05-.92a26,26,0,0,1,.15-3.65l8.93-3.64,5.82,2.78,1.23,10.23-4.82,4.29Zm23.49,17c-.43,0-.86,0-1.28-.06A25.12,25.12,0,0,1,43.34,51l-.71-9.66L47.46,37l10.39,2.05,2.22,5.83ZM73.5,46,62.37,43.31l-2-5.38,5.14-9.23L73.06,28l6.52,7.73A25.38,25.38,0,0,1,73.5,46Z"/><path class="cls-1" d="M14.47,18.53l-1.68,8h11a30.78,30.78,0,0,1,1.51-8Z"/><path class="cls-1" d="M1.68,29.51,0,37.51H25.14a31.09,31.09,0,0,1-1.36-8Z"/><path class="cls-1" d="M5.79,40.48l-1.68,8H31.16a31.34,31.34,0,0,1-4.94-8Z"/></g></g></svg>