<svg xmlns="http://www.w3.org/2000/svg" viewBox="0 0 41.04 41.06"><defs><style>.cls-1{fill:#a5a4a4;}</style></defs><title>tennis</title><g id="Layer_2" data-name="Layer 2"><g id="Layer_5" data-name="Layer 5"><path class="cls-1" d="M26.83,15.15A20.49,20.49,0,0,0,41,20.71,20.51,20.51,0,0,0,35.05,6l-.16-.15-.11-.09A20.49,20.49,0,0,0,20.37,0a20.48,20.48,0,0,0,6,14.7C26.51,14.85,26.66,15,26.83,15.15Z"/><path class="cls-1" d="M17.24,24.74a23.49,23.49,0,0,1,6.42,16.08A20.4,20.4,0,0,0,35,35.08a11.65,11.65,0,0,0,.87-.94A20.09,20.09,0,0,0,40.8,23.72a23.5,23.5,0,0,1-16-6.36,7.07,7.07,0,0,1-.56-.54A23.43,23.43,0,0,1,17.37.23,20.06,20.06,0,0,0,7,5.09C6.6,5.4,6.29,5.7,6,6A20.52,20.52,0,0,0,.22,17.35a23.52,23.52,0,0,1,16.57,6.9C16.94,24.41,17.1,24.57,17.24,24.74Z"/><path class="cls-1" d="M6,35a20.46,20.46,0,0,0,14.69,6A20.51,20.51,0,0,0,15,26.77l-.09-.11a3.57,3.57,0,0,0-.27-.28A20.49,20.49,0,0,0,0,20.35,20.47,20.47,0,0,0,5.38,34.41,7.64,7.64,0,0,0,6,35Z"/></g></g></svg>