<svg xmlns="http://www.w3.org/2000/svg" viewBox="0 0 67.93 41.06"><defs><style>.cls-1{fill:#fde74d;}</style></defs><title>tennis_hover</title><g id="Layer_2" data-name="Layer 2"><g id="Layer_5" data-name="Layer 5"><path class="cls-1" d="M53.71,15.15a20.49,20.49,0,0,0,14.21,5.56A20.51,20.51,0,0,0,61.93,6l-.16-.15-.11-.09A20.49,20.49,0,0,0,47.25,0a20.48,20.48,0,0,0,6,14.7C53.39,14.85,53.54,15,53.71,15.15Z"/><path class="cls-1" d="M44.12,24.74a23.49,23.49,0,0,1,6.42,16.08A20.4,20.4,0,0,0,61.9,35.08a11.65,11.65,0,0,0,.87-.94,20.19,20.19,0,0,0,4.92-10.42,23.52,23.52,0,0,1-16-6.36c-.18-.16-.37-.35-.56-.54A23.47,23.47,0,0,1,44.25.23,20.09,20.09,0,0,0,33.86,5.09c-.38.31-.69.61-1,.91a20.39,20.39,0,0,0-5.75,11.35,23.49,23.49,0,0,1,16.56,6.9C43.82,24.41,44,24.57,44.12,24.74Z"/><path class="cls-1" d="M32.85,35a20.46,20.46,0,0,0,14.69,6,20.43,20.43,0,0,0-5.63-14.29l-.09-.11a3.57,3.57,0,0,0-.27-.28,20.47,20.47,0,0,0-14.67-6,20.52,20.52,0,0,0,5.38,14.06A7.64,7.64,0,0,0,32.85,35Z"/><path class="cls-1" d="M30.91,3.79H14.47l-1.68,8h12.8A23.5,23.5,0,0,1,30.91,3.79Z"/><path class="cls-1" d="M24.62,14.77H1.68L0,22.78H24c-.07-.74-.11-1.49-.11-2.25A23.25,23.25,0,0,1,24.62,14.77Z"/><path class="cls-1" d="M5.79,25.75l-1.68,8H28a23.35,23.35,0,0,1-3.49-8Z"/></g></g></svg>