<svg xmlns="http://www.w3.org/2000/svg" viewBox="0 0 83.35 56.46"><defs><style>.cls-1{fill:#fbe64c;}.cls-2{fill:#fde74d;}</style></defs><title>volleyball_hover</title><g id="Layer_2" data-name="Layer 2"><g id="Layer_5" data-name="Layer 5"><path class="cls-1" d="M74.57,30.54a37,37,0,0,1,.55,6.25v.28c0,.43,0,.88-.06,1.33,0,.63-.07,1.4-.17,2.17a34.71,34.71,0,0,1-2.43,9.79c.31-.25.63-.5.93-.76A28.29,28.29,0,0,0,81.3,38.38a27.12,27.12,0,0,0,1.15-3.73,33.16,33.16,0,0,0-3.66-2.27A32,32,0,0,0,74.57,30.54Z"/><path class="cls-1" d="M50.45,8.41c-.36.17-.66.34-1,.51l-.3.16a30.83,30.83,0,0,0-4.1,2.83,2.27,2.27,0,0,1-.34.19c.19.47.39.94.61,1.42a31.54,31.54,0,0,0,2.57,4.68,1.73,1.73,0,0,1,.43-.27l.09-.05a35.55,35.55,0,0,1,19.43-4,24.79,24.79,0,0,1,3.61.48A33.84,33.84,0,0,1,77,15.85a35.17,35.17,0,0,1,4.09,1.7A27.87,27.87,0,0,0,78,11.91l-.1-.12a27.85,27.85,0,0,0-6.72-6.66,32.59,32.59,0,0,0-12.68.33A31.84,31.84,0,0,0,50.45,8.41Z"/><path class="cls-1" d="M83.12,31.39c-.92-.59-2-1.16-2.93-1.67a35,35,0,0,0-5-2.13c-.53-.19-1.06-.36-1.57-.51s-.88-.26-1.33-.38a33.41,33.41,0,0,0-7.22-1.08c-.57,0-1.15,0-1.74,0h0a36.15,36.15,0,0,0-7.66.81,32.84,32.84,0,0,1-5.43-5.07c-.2-.22-.39-.47-.58-.71l.1-.05a32.55,32.55,0,0,1,17.84-3.65,22,22,0,0,1,3.31.44,30.83,30.83,0,0,1,5,1.33,34.17,34.17,0,0,1,6.66,3.05A28.18,28.18,0,0,1,83.12,31.39Z"/><path class="cls-1" d="M61.06,42.11a33.06,33.06,0,0,0,2.45-11.2c0-.5,0-.95,0-1.39s0-.63,0-.94H63a31.48,31.48,0,0,0-6.36.68A32.88,32.88,0,0,1,55,35.18c-.36,1-.77,2-1.21,2.9a35,35,0,0,1-2.57,4.51,34.21,34.21,0,0,1-2.12,2.86c-.68.83-1.35,1.59-2,2.3A29.93,29.93,0,0,1,44.72,50,33.56,33.56,0,0,1,41,52.76a27.78,27.78,0,0,0,4.4,2A28.1,28.1,0,0,0,50.19,56c.62-.46,1.25-1,1.88-1.5a32.75,32.75,0,0,0,8.26-10.8C60.6,43.2,60.83,42.67,61.06,42.11Z"/><path class="cls-1" d="M43,6.24a29.57,29.57,0,0,0,.72,2.92,35,35,0,0,1,4-2.7L48,6.29c.35-.2.72-.4,1.08-.57a34.76,34.76,0,0,1,8.71-3.19,35.51,35.51,0,0,1,6.71-.85A27.87,27.87,0,0,0,55,0h-.3a13.8,13.8,0,0,0-1.49.07,27.34,27.34,0,0,0-8,1.68,25.41,25.41,0,0,0-2.61,1.14A30.71,30.71,0,0,0,43,6,1.74,1.74,0,0,1,43,6.24Z"/><path class="cls-1" d="M44.94,45.66l.56-.61a35.92,35.92,0,0,1-11.18-4.19A11.64,11.64,0,0,1,33,40a34.71,34.71,0,0,1-5.13-4,28.09,28.09,0,0,0,7.89,12.81l.26.23.49.43c.57.5,1.17,1,1.77,1.41a32.09,32.09,0,0,0,4.5-3.27A28.9,28.9,0,0,0,44.94,45.66Z"/><path class="cls-1" d="M71.39,29.56a32.18,32.18,0,0,0-4.84-.85v.81c0,.52,0,1.06,0,1.58a35.78,35.78,0,0,1-2.67,12.13A19.16,19.16,0,0,1,63,45.05a35.5,35.5,0,0,1-8.61,11.4H55a28.35,28.35,0,0,0,7.36-1,27.1,27.1,0,0,0,5.21-2,31.93,31.93,0,0,0,4.35-13.24c.09-.71.13-1.4.16-2.06,0-.45,0-.81.05-1.16v-.25a33.53,33.53,0,0,0-.7-6.8A1.89,1.89,0,0,1,71.39,29.56Z"/><path class="cls-1" d="M45.77,32.08a11.63,11.63,0,0,0,1.13.7A35.79,35.79,0,0,0,51.61,35l.22.11c.13-.33.27-.67.4-1a30.29,30.29,0,0,0,1.49-5.49A36.56,36.56,0,0,1,48,23.28a35.05,35.05,0,0,1-2.33-3,35.47,35.47,0,0,1-3.06-5.5c-.47-1-.89-2.09-1.23-3.09a33.41,33.41,0,0,1-1.31-4.9.56.56,0,0,1,0-.07.64.64,0,0,1,0-.07c-.14-.71-.25-1.42-.34-2.12a27.71,27.71,0,0,0-3.15,2.35c-.4.35-.78.69-1.15,1.05a27.94,27.94,0,0,0-3.86,4.61A32.51,32.51,0,0,0,45.77,32.08Z"/><path class="cls-1" d="M34.64,37.53l.1.07a11.2,11.2,0,0,0,1,.64,32.75,32.75,0,0,0,11.61,4.1,1.37,1.37,0,0,1,.29.07c.37-.48.72-1,1.07-1.48a35.11,35.11,0,0,0,1.8-3.08h0a37.1,37.1,0,0,1-5.07-2.44,11.9,11.9,0,0,1-1.36-.83A35.42,35.42,0,0,1,29.5,16.13a26.71,26.71,0,0,0-2,5.65,27.55,27.55,0,0,0-.76,6.43c0,.11,0,.23,0,.35a.76.76,0,0,1,0,.15c0,.66.05,1.31.11,2A32.37,32.37,0,0,0,34.64,37.53Z"/><path class="cls-2" d="M24.44,24.77H1.68L0,32.78H24.54a31.58,31.58,0,0,1-.32-4.38A31,31,0,0,1,24.44,24.77Z"/><path class="cls-2" d="M14.47,13.8l-1.68,8H24.93a30.93,30.93,0,0,1,2.92-8Z"/><path class="cls-2" d="M5.79,35.75l-1.68,8H28.26a31.33,31.33,0,0,1-3.16-8Z"/></g></g></svg>