<svg xmlns="http://www.w3.org/2000/svg" viewBox="0 0 56.6 56.46"><defs><style>.cls-1{fill:#a5a4a4;}</style></defs><title>volleyball</title><g id="Layer_2" data-name="Layer 2"><g id="Layer_5" data-name="Layer 5"><path class="cls-1" d="M47.81,30.54a37,37,0,0,1,.56,6.25v.28c0,.43,0,.88-.07,1.33,0,.63-.06,1.4-.16,2.17a34.73,34.73,0,0,1-2.44,9.79c.32-.25.64-.5.94-.76a28.39,28.39,0,0,0,7.91-11.22,27.12,27.12,0,0,0,1.15-3.73A33.16,33.16,0,0,0,52,32.38,31.52,31.52,0,0,0,47.81,30.54Z"/><path class="cls-1" d="M23.7,8.41a10.48,10.48,0,0,0-1,.51l-.3.16a30.19,30.19,0,0,0-4.1,2.83,2.9,2.9,0,0,1-.34.19c.19.47.39.94.61,1.42a31.54,31.54,0,0,0,2.57,4.68,1.51,1.51,0,0,1,.42-.27l.1-.05a35.51,35.51,0,0,1,19.42-4,25,25,0,0,1,3.62.48,34,34,0,0,1,5.47,1.45,35.32,35.32,0,0,1,4.1,1.7,28.37,28.37,0,0,0-3.08-5.64l-.1-.12a27.85,27.85,0,0,0-6.72-6.66,32.59,32.59,0,0,0-12.68.33A31.56,31.56,0,0,0,23.7,8.41Z"/><path class="cls-1" d="M56.36,31.39c-.92-.59-2-1.16-2.92-1.67a36,36,0,0,0-4.95-2.13c-.54-.19-1.06-.36-1.58-.51s-.88-.26-1.32-.38a33.41,33.41,0,0,0-7.22-1.08c-.57,0-1.15,0-1.74,0h0a36.09,36.09,0,0,0-7.66.81,32.84,32.84,0,0,1-5.43-5.07c-.2-.22-.39-.47-.58-.71l.1-.05a32.51,32.51,0,0,1,17.83-3.65,22.16,22.16,0,0,1,3.32.44,31.1,31.1,0,0,1,5,1.33,34.17,34.17,0,0,1,6.66,3.05A28,28,0,0,1,56.36,31.39Z"/><path class="cls-1" d="M34.31,42.11a33.06,33.06,0,0,0,2.45-11.2c0-.5,0-.95,0-1.39s0-.63,0-.94h-.52a31.65,31.65,0,0,0-6.37.68,32.86,32.86,0,0,1-1.62,5.93,31.08,31.08,0,0,1-1.22,2.9,34.9,34.9,0,0,1-2.56,4.51,34.27,34.27,0,0,1-2.13,2.86c-.67.83-1.34,1.59-2,2.3A28.31,28.31,0,0,1,18,50a33.56,33.56,0,0,1-3.68,2.79,27,27,0,0,0,4.4,2A28.23,28.23,0,0,0,23.43,56q.95-.69,1.89-1.5a32.89,32.89,0,0,0,8.26-10.8C33.84,43.2,34.08,42.67,34.31,42.11Z"/><path class="cls-1" d="M16.28,6.24A29.66,29.66,0,0,0,17,9.16a35,35,0,0,1,4-2.7l.31-.17c.36-.2.73-.4,1.09-.57a34.62,34.62,0,0,1,8.71-3.19,35.31,35.31,0,0,1,6.71-.85A27.87,27.87,0,0,0,28.26,0H28a13.93,13.93,0,0,0-1.49.07,27.35,27.35,0,0,0-8,1.68,25.41,25.41,0,0,0-2.61,1.14A30.71,30.71,0,0,0,16.23,6,1.44,1.44,0,0,1,16.28,6.24Z"/><path class="cls-1" d="M18.19,45.66l.56-.61A35.83,35.83,0,0,1,7.57,40.86,11.64,11.64,0,0,1,6.25,40a34.71,34.71,0,0,1-5.13-4A28,28,0,0,0,9,48.89l.26.23.48.43c.58.5,1.18,1,1.78,1.41A32.09,32.09,0,0,0,16,47.69C16.69,47.13,17.37,46.49,18.19,45.66Z"/><path class="cls-1" d="M44.64,29.56a32.41,32.41,0,0,0-4.84-.85v.81c0,.52,0,1.06,0,1.58a35.78,35.78,0,0,1-2.67,12.13c-.26.64-.54,1.26-.83,1.82a35.47,35.47,0,0,1-8.6,11.4h.57a28.37,28.37,0,0,0,7.37-1,27.1,27.1,0,0,0,5.21-2,32.07,32.07,0,0,0,4.35-13.24c.09-.71.13-1.4.15-2.06,0-.45,0-.81.06-1.16v-.25a34.26,34.26,0,0,0-.71-6.8A1.41,1.41,0,0,1,44.64,29.56Z"/><path class="cls-1" d="M19,32.08a13.21,13.21,0,0,0,1.14.7A35.1,35.1,0,0,0,24.85,35l.22.11c.14-.33.28-.67.4-1A30.31,30.31,0,0,0,27,28.64a37.07,37.07,0,0,1-5.72-5.36,35,35,0,0,1-2.32-3,34.66,34.66,0,0,1-3.06-5.5c-.47-1-.89-2.09-1.23-3.09a33.41,33.41,0,0,1-1.31-4.9s0,0,0-.07a.14.14,0,0,1,0-.07c-.14-.71-.25-1.42-.35-2.12A27.6,27.6,0,0,0,9.81,6.85c-.4.35-.79.69-1.15,1.05a28.5,28.5,0,0,0-3.87,4.61A32.55,32.55,0,0,0,19,32.08Z"/><path class="cls-1" d="M7.89,37.53,8,37.6A10.23,10.23,0,0,0,9,38.24a32.77,32.77,0,0,0,11.6,4.1,1.32,1.32,0,0,1,.3.07c.36-.48.72-1,1.06-1.48a32.77,32.77,0,0,0,1.8-3.08h0A36.54,36.54,0,0,1,18.7,35.4a11.08,11.08,0,0,1-1.36-.83A35.39,35.39,0,0,1,2.74,16.13a27.27,27.27,0,0,0-2,5.65A28.09,28.09,0,0,0,0,28.21c0,.11,0,.23,0,.35a.76.76,0,0,1,0,.15c0,.66.05,1.31.1,2A32.41,32.41,0,0,0,7.89,37.53Z"/></g></g></svg>